PathFileType	4	(X/Y/Z)	D:\MotionData\Pi-Spi Study\20230118_AMCsubject1\Trimmed_right_abd_18001_rotated.trc
DataRate	CameraRate	NumFrames	NumMarkers	Units	OrigDataRate	OrigDataStartFrame	OrigNumFrames
200.00	200.00	       12	35	mm	200.00	26	       200
Frame#	Time	C7			Sternum			r_AMC1			r_AMC2			r_AMC3			l_AMC1			l_AMC2			l_AMC3			PX			T8			r_humerous			r_elbow_medial			r_elbow_lateral			r_forearm			r_wrist_radius			r_wrist_ulna			r_MCP_1			r_MCP_3			l_humerous			l_elbow_medial			l_elbow_lateral			l_forearm			l_wrist_radius			l_wrist_ulna			l_MCP_1			l_MCP_3			r_ASIS			r_PSIS			l_ASIS			l_PSIS			r_IC			l_IC			TS			AI			AA			
		X1	Y1	Z1	X2	Y2	Z2	X3	Y3	Z3	X4	Y4	Z4	X5	Y5	Z5	X6	Y6	Z6	X7	Y7	Z7	X8	Y8	Z8	X9	Y9	Z9	X10	Y10	Z10	X11	Y11	Z11	X12	Y12	Z12	X13	Y13	Z13	X14	Y14	Z14	X15	Y15	Z15	X16	Y16	Z16	X17	Y17	Z17	X18	Y18	Z18	X19	Y19	Z19	X20	Y20	Z20	X21	Y21	Z21	X22	Y22	Z22	X23	Y23	Z23	X24	Y24	Z24	X25	Y25	Z25	X26	Y26	Z26	X27	Y27	Z27	X28	Y28	Z28	X29	Y29	Z29	X30	Y30	Z30	X31	Y31	Z31	X32	Y32	Z32	X33	Y33	Z33	X34	Y34	Z34	X35	Y35	Z35	

26	0.125	192.1081	1374.3905	-244.5097	328.4375	1321.7434	-221.8562	155.5897	1342.7506	-114.3447	184.5991	1378.5325	-96.2343	187.3872	1396.9984	-136.3662	220.434	1322.9862	-396.924	260.7806	1316.1664	-427.5646	282.5305	1354.2765	-399.2685	389.0796	1129.9718	-205.7173	157.8537	1191.0475	-243.0541	264.4677	1475.0413	-77.6162	352.1278	1556.1874	14.9655	295.163	1579.2864	14.8476	335.0523	1741.3115	28.3664	376.3735	1807.4884	4.0092	364.7012	1800.9874	54.768	396.1459	1888.963	6.6424	388.9466	1883.2538	53.9157	343.4428	1126.3296	-424.0136	294.672	993.0096	-379.2183	286.222	987.0673	-431.3802	320.2709	841.2321	-472.2967	334.1364	764.1732	-456.5111	355.681	774.4997	-492.1026	348.9451	688.5375	-466.8853	362.9837	697.9899	-509.1202	351.4953	909.2966	-75.5454	169.1376	929.7101	-168.3454	367.6403	892.9882	-334.4163	175.6718	922.9222	-271.0122	269.4042	971.8882	-52.1436	281.255	940.9799	-377.792	100.4857	1295.3254	-157.6196	118.5217	1221.6777	-88.9764	135.8473	1389.7871	-53.8639
27	0.13	192.1006	1374.3818	-244.5266	328.5233	1321.6932	-221.9248	155.5857	1342.7506	-114.3301	184.5914	1378.5337	-96.2502	187.3665	1397.0124	-136.3696	220.4297	1322.946	-396.905	260.7584	1316.1737	-427.589	282.5597	1354.2825	-399.3096	389.074	1129.9946	-205.7723	157.8421	1191.043	-243.0671	264.4764	1475.0447	-77.6515	352.0857	1556.23	14.9628	295.1727	1579.2266	14.8496	335.0531	1741.308	28.3525	376.3615	1807.5099	3.9874	364.7166	1801.0088	54.7454	396.1304	1888.9633	6.628	388.9344	1883.2544	53.9166	343.4117	1126.3235	-424.0295	294.6132	993.0267	-379.2229	286.1803	987.0586	-431.4111	320.1944	841.2204	-472.3309	334.0877	764.1507	-456.5005	355.3612	774.3691	-491.9164	348.8662	688.5446	-466.9146	362.9102	697.994	-509.1095	351.4948	909.3065	-75.5666	169.1201	929.7162	-168.3322	367.6625	892.9977	-334.4094	175.6627	922.9117	-271.0266	269.3929	971.9097	-52.1197	281.2404	941.0195	-377.7835	100.4766	1295.3125	-157.625	118.4974	1221.6459	-88.9585	135.8564	1389.7622	-53.8575
28	0.135	192.0824	1374.3834	-244.545	328.3529	1321.8325	-221.8408	155.5788	1342.7578	-114.3434	184.5888	1378.5061	-96.2674	187.3717	1396.9966	-136.3837	220.4157	1322.9513	-396.9121	260.7318	1316.1514	-427.602	282.521	1354.2633	-399.3241	389.0561	1129.9685	-205.7536	157.8258	1191.0452	-243.0614	264.442	1475.0544	-77.6637	352.0751	1556.2334	14.9436	295.1616	1579.2482	14.8213	335.047	1741.2959	28.3351	376.353	1807.5052	3.9666	364.6948	1800.9847	54.7301	396.1458	1888.9677	6.622	388.9182	1883.2573	53.9098	343.399	1126.2858	-424.0334	294.5881	993.0118	-379.2408	286.1289	987.0588	-431.4174	320.1607	841.2195	-472.3436	334.0339	764.1539	-456.5195	355.5961	774.4863	-492.0894	348.8301	688.5725	-466.8951	362.8448	697.9703	-509.1224	351.4739	909.301	-75.5483	169.1027	929.7171	-168.3392	367.6255	892.9864	-334.4248	175.6529	922.9146	-271.0272	269.3861	971.9222	-52.1466	281.3127	941.0071	-377.7923	100.4719	1295.2961	-157.6483	118.5373	1221.6206	-89.0777	135.8495	1389.7189	-53.8597
29	0.14	192.0944	1374.3868	-244.5618	328.3253	1321.8471	-221.8725	155.575	1342.7455	-114.3608	184.5605	1378.5148	-96.2803	187.3371	1397.0098	-136.3857	220.3943	1322.9862	-396.9513	260.7188	1316.1558	-427.6144	282.5317	1354.2541	-399.3372	389.0607	1130.0101	-205.802	157.8024	1191.0664	-243.0847	264.4303	1475.0458	-77.6913	352.1231	1556.2492	14.8774	295.1458	1579.3145	14.7689	335.0476	1741.3133	28.3074	376.3549	1807.5085	3.9592	364.679	1800.9983	54.7152	396.1264	1888.9922	6.617	388.8897	1883.2705	53.9079	343.3666	1126.3138	-424.0295	294.572	993.0158	-379.2342	286.1079	987.0459	-431.4192	320.1148	841.2279	-472.3436	333.9568	764.1751	-456.5359	355.5533	774.4913	-492.1121	348.743	688.5201	-466.9049	362.7903	697.958	-509.128	351.4673	909.3115	-75.5918	169.0783	929.7284	-168.3357	367.6146	892.9933	-334.4018	175.6373	922.8932	-271.038	269.3855	971.9252	-52.1787	281.2306	941.0163	-377.8431	100.4607	1295.2566	-157.6463	118.5286	1221.535	-89.1296	135.8592	1389.6946	-53.873
30	0.145	192.0776	1374.3881	-244.5812	328.4652	1321.7257	-222.0196	155.5786	1342.7427	-114.3645	184.5649	1378.4907	-96.2772	187.3297	1397.0283	-136.3947	220.3543	1323.0171	-396.9479	260.7138	1316.1361	-427.6438	282.3276	1353.8503	-399.3544	389.058	1129.988	-205.7955	157.8059	1191.0559	-243.1075	264.4095	1475.0591	-77.7235	352.1102	1556.2427	14.8516	295.1323	1579.2576	14.7556	335.0261	1741.3092	28.2942	376.357	1807.5081	3.9251	364.6802	1800.9961	54.7059	396.1311	1888.9873	6.6067	388.8935	1883.2613	53.8978	343.3329	1126.3048	-424.0717	294.5289	993.0199	-379.2412	286.0548	987.0348	-431.4381	320.0411	841.2185	-472.3453	333.9301	764.1856	-456.5382	355.4835	774.4695	-492.1121	348.699	688.5092	-466.8874	362.7359	697.9349	-509.1503	351.4706	909.3166	-75.5721	169.0736	929.7232	-168.3388	367.6088	892.9864	-334.4564	175.6334	922.8828	-271.0388	269.35	971.9557	-52.1877	281.2561	940.9949	-377.8595	100.4556	1295.2695	-157.6533	118.5564	1221.5558	-89.0836	135.8564	1389.6682	-53.8472
31	0.15	192.0772	1374.3802	-244.5947	328.3781	1321.7667	-221.9799	155.5466	1342.7379	-114.3705	184.5563	1378.5038	-96.2889	187.3296	1397.0215	-136.4109	220.3205	1323.0374	-396.96	260.8019	1316.2329	-427.8116	282.3148	1353.8492	-399.3763	389.0525	1129.9882	-205.8167	157.8052	1191.0482	-243.117	264.4184	1475.0654	-77.7523	352.1122	1556.2666	14.8085	295.1231	1579.3317	14.7121	335.025	1741.3164	28.2734	376.362	1807.5194	3.9177	364.6622	1800.9988	54.6766	396.1134	1888.9911	6.6154	388.9083	1883.2711	53.9008	343.3095	1126.3074	-424.0801	294.4959	993.0226	-379.2564	286.0343	987.03	-431.4465	320.0021	841.202	-472.3446	333.861	764.1611	-456.5417	355.4712	774.46	-492.1127	348.6519	688.4876	-466.8703	362.6938	697.9464	-509.1205	351.4471	909.272	-75.5495	169.0661	929.7096	-168.3501	367.5978	893.0049	-334.4779	175.613	922.8941	-271.0614	269.3409	971.9422	-52.1847	281.2276	940.9908	-377.8719	100.4718	1295.2429	-157.6666	118.5659	1221.5021	-89.1641	135.8386	1389.6534	-53.8188
32	0.155	192.0675	1374.3846	-244.6217	328.3549	1321.8296	-222.0014	155.5393	1342.7323	-114.3809	184.5662	1378.4761	-96.3024	187.3161	1397.0217	-136.4284	220.396	1322.9568	-397.0285	260.7048	1316.1333	-427.7107	282.3136	1353.849	-399.3879	389.0365	1130.0389	-205.8687	157.7843	1191.0624	-243.1296	264.4152	1475.0714	-77.7596	352.1013	1556.2635	14.7995	295.119	1579.2747	14.6931	335.0111	1741.327	28.273	376.3542	1807.5211	3.9045	364.6681	1800.9883	54.6664	396.1546	1889.0128	6.5984	388.8951	1883.2793	53.8828	343.3016	1126.2898	-424.0801	294.4552	993.0077	-379.2802	285.9948	987.0346	-431.4465	319.9392	841.1888	-472.3577	333.7982	764.1644	-456.5501	355.4091	774.447	-492.1199	348.6099	688.4476	-466.8665	362.6285	697.9322	-509.1239	351.4839	909.3188	-75.5946	169.0588	929.7306	-168.3696	367.6029	892.9735	-334.4608	175.6025	922.8873	-271.0595	269.3224	971.9959	-52.221	281.0032	941.1585	-377.814	100.4515	1295.2229	-157.6799	118.5491	1221.4647	-89.1252	135.8453	1389.61	-53.8347
33	0.16	192.055	1374.3737	-244.6317	328.3512	1321.7795	-221.9897	155.5252	1342.7202	-114.3964	184.5191	1378.4639	-96.3568	187.2971	1397.0433	-136.432	220.3115	1323.0172	-397.0182	260.6938	1316.1273	-427.709	282.3154	1353.8467	-399.419	388.9982	1130.0211	-205.8571	157.757	1191.0543	-243.146	264.4174	1475.0964	-77.8002	352.1021	1556.2693	14.744	295.0987	1579.2786	14.6689	335.0135	1741.338	28.2495	376.3505	1807.5292	3.8993	364.6711	1801.001	54.6681	396.1516	1889.0188	6.5975	388.8993	1883.2787	53.8829	343.2666	1126.2947	-424.1295	294.4072	993.0153	-379.3175	285.971	987.0385	-431.4416	319.9113	841.1772	-472.3632	333.7602	764.1363	-456.5537	355.378	774.4246	-492.1362	348.544	688.4408	-466.8733	362.5776	697.9152	-509.1378	351.4341	909.3314	-75.5721	169.051	929.7078	-168.3781	367.5633	892.9814	-334.479	175.6049	922.897	-271.0514	269.2962	971.9806	-52.2186	281.179	940.9945	-377.822	100.4343	1295.2118	-157.6719	118.5981	1221.4773	-89.1621	135.8464	1389.583	-53.8405
34	0.165	192.0449	1374.3718	-244.6573	328.2781	1321.8445	-221.9739	155.5183	1342.736	-114.3946	184.5286	1378.48	-96.3484	187.3141	1397.0267	-136.4456	220.2472	1323.0687	-397.0007	260.6934	1316.144	-427.7574	282.3041	1353.8315	-399.425	389.0136	1130.0287	-205.9072	157.7575	1191.0452	-243.1724	264.3672	1475.0858	-77.8258	352.1124	1556.3328	14.682	295.1145	1579.2891	14.633	335.0022	1741.3413	28.2332	376.3424	1807.5392	3.8846	364.6597	1801.0115	54.6371	396.168	1889.0231	6.5934	388.89	1883.2792	53.8673	343.2467	1126.2915	-424.1009	294.3713	993.0126	-379.3256	285.9709	987.0065	-431.4778	319.8551	841.1666	-472.3827	333.6616	764.1522	-456.5853	355.0242	774.2779	-491.9537	348.4763	688.4703	-466.9118	362.5087	697.9046	-509.1426	351.4493	909.3156	-75.6138	169.03	929.6891	-168.3726	367.5517	892.972	-334.4979	175.5917	922.8746	-271.0788	269.3077	971.9669	-52.2269	281.1044	941.0571	-377.8467	100.4104	1295.2023	-157.6809	118.6309	1221.436	-89.2586	135.843	1389.5704	-53.8427
35	0.17	192.0299	1374.3861	-244.691	328.2811	1321.8312	-221.9807	155.5356	1342.7332	-114.4061	184.5207	1378.4614	-96.3878	187.2973	1397.0413	-136.463	220.3055	1322.9819	-397.0761	260.6652	1316.1238	-427.7722	282.2975	1353.8304	-399.449	389.0202	1130.052	-205.8791	157.7666	1191.0435	-243.1781	264.3572	1475.1068	-77.8394	352.1062	1556.3087	14.6544	295.0947	1579.3153	14.6019	335.0036	1741.3404	28.2208	376.3446	1807.5425	3.8848	364.6418	1801.0121	54.6349	396.1473	1889.022	6.6057	388.8962	1883.2839	53.8685	343.2386	1126.2875	-424.1168	294.3569	993.035	-379.3358	285.9657	987.0062	-431.475	319.8097	841.1458	-472.3918	333.6709	764.1181	-456.5591	355.2842	774.4209	-492.1545	348.4612	688.4514	-466.8685	362.4737	697.9093	-509.1443	351.4453	909.356	-75.6188	169.0257	929.6965	-168.3811	367.5534	892.978	-334.51	175.5559	922.8725	-271.0666	269.2841	972.0024	-52.2342	281.1394	941.0242	-377.8284	100.4057	1295.1936	-157.6835	118.656	1221.4496	-89.2723	135.8547	1389.5474	-53.8446
36	0.175	192.0258	1374.3704	-244.7228	328.2677	1321.8441	-222.0446	155.4911	1342.7036	-114.4624	184.5245	1378.4773	-96.4046	187.3074	1397.0475	-136.4943	220.2958	1322.9935	-397.0929	260.7672	1316.1873	-427.9456	282.2905	1353.818	-399.4721	389.0171	1130.045	-205.9126	157.7511	1191.0526	-243.1846	264.3606	1475.1028	-77.8673	352.1102	1556.327	14.6197	295.1066	1579.3115	14.5776	334.9996	1741.3365	28.2006	376.3487	1807.5526	3.8742	364.6318	1801.0092	54.6129	396.1615	1889.0211	6.5876	388.8957	1883.2781	53.8756	343.2601	1126.2264	-424.1258	294.3526	993.006	-379.3444	285.9421	987.0055	-431.479	319.7723	841.1305	-472.3893	333.5868	764.1415	-456.6015	355.237	774.4213	-492.1572	348.4259	688.4331	-466.8563	362.4225	697.8767	-509.1474	351.4156	909.3467	-75.6272	169.0109	929.6929	-168.3919	367.5627	892.9802	-334.5148	175.5819	922.8668	-271.0714	269.3182	971.9961	-52.2796	281.1419	941.0191	-377.8806	100.3992	1295.1737	-157.7185	118.65	1221.407	-89.3033	135.8515	1389.5371	-53.8428
37	0.18	192.0213	1374.3818	-244.7148	328.3303	1321.7661	-222.0895	155.5064	1342.7314	-114.4359	184.5159	1378.4744	-96.4188	187.3021	1397.0388	-136.5003	220.2748	1323.015	-397.0912	260.7391	1316.1732	-427.9564	282.2885	1353.8246	-399.4858	389.0435	1130.0599	-205.9197	157.7559	1191.0457	-243.227	264.3649	1475.1052	-77.9024	352.1195	1556.3026	14.6071	295.1145	1579.3281	14.5513	334.9867	1741.3477	28.1919	376.3533	1807.5598	3.8498	364.6397	1801.0127	54.606	396.1582	1889.0312	6.6037	388.8968	1883.2822	53.8701	343.2391	1126.2612	-424.1151	294.3361	993.0017	-379.3565	285.9176	986.98	-431.5051	319.7308	841.1404	-472.3878	333.562	764.113	-456.5626	355.1902	774.3951	-492.1877	348.4069	688.4337	-466.8419	362.3623	697.8888	-509.1408	351.4439	909.3459	-75.6411	169.0157	929.7001	-168.4061	367.5074	892.9667	-334.5167	175.5512	922.8481	-271.0898	269.279	972.004	-52.2829	281.0918	941.0574	-377.9222	100.3765	1295.1676	-157.7069	118.6975	1221.4029	-89.3388	135.8509	1389.5221	-53.8318
